<?xml version="1.0" encoding="UTF-8"?>
<svg id="Livello_2" data-name="Livello 2" xmlns="http://www.w3.org/2000/svg" width="343.88" height="400" xmlns:xlink="http://www.w3.org/1999/xlink" viewBox="0 0 343.88 400">
  <defs>
    <style>
      .cls-1 {
        fill: url(#Sfumatura_senza_nome_8-2);
      }

      .cls-1, .cls-2, .cls-3, .cls-4, .cls-5, .cls-6, .cls-7, .cls-8, .cls-9 {
        stroke-width: 0px;
      }

      .cls-2 {
        fill: url(#Sfumatura_senza_nome_336-2);
      }

      .cls-3 {
        fill: url(#Sfumatura_senza_nome_8);
      }

      .cls-4 {
        fill: url(#Sfumatura_senza_nome_325);
      }

      .cls-5 {
        fill: url(#Sfumatura_senza_nome_336);
      }

      .cls-6 {
        fill: url(#Sfumatura_senza_nome_340);
      }

      .cls-7 {
        fill: url(#Sfumatura_senza_nome_45-2);
      }

      .cls-8 {
        fill: url(#Sfumatura_senza_nome_45);
      }

      .cls-9 {
        fill: url(#Sfumatura_senza_nome_340-2);
      }
    </style>
    <linearGradient id="Sfumatura_senza_nome_45" data-name="Sfumatura senza nome 45" x1="0" y1="370" x2="200" y2="370" gradientUnits="userSpaceOnUse">
      <stop offset="0" stop-color="#ff8500"/>
      <stop offset=".25" stop-color="#ff8600"/>
      <stop offset="1" stop-color="#ff9800"/>
    </linearGradient>
    <linearGradient id="Sfumatura_senza_nome_8" data-name="Sfumatura senza nome 8" x1="40" y1="280" x2="40" y2="340" gradientTransform="translate(80 620) rotate(-180)" gradientUnits="userSpaceOnUse">
      <stop offset="0" stop-color="#ff9800"/>
      <stop offset=".4" stop-color="#ff8500"/>
    </linearGradient>
    <radialGradient id="Sfumatura_senza_nome_336" data-name="Sfumatura senza nome 336" cx="100" cy="200.91" fx="100" fy="200.91" r="122.44" gradientTransform="translate(0 1.03)" gradientUnits="userSpaceOnUse">
      <stop offset="0" stop-color="#ff9800"/>
      <stop offset=".2" stop-color="#ff8600"/>
      <stop offset="1" stop-color="#ff8500"/>
    </radialGradient>
    <linearGradient id="Sfumatura_senza_nome_8-2" data-name="Sfumatura senza nome 8" x1="160" y1="120" x2="160" y2="60" gradientTransform="matrix(1,0,0,1,0,0)" xlink:href="#Sfumatura_senza_nome_8"/>
    <linearGradient id="Sfumatura_senza_nome_45-2" data-name="Sfumatura senza nome 45" y1="30" y2="30" xlink:href="#Sfumatura_senza_nome_45"/>
    <linearGradient id="Sfumatura_senza_nome_340" data-name="Sfumatura senza nome 340" x1="40" y1="280" x2="40" y2="340" gradientTransform="translate(80 620) rotate(-180)" gradientUnits="userSpaceOnUse">
      <stop offset=".6" stop-color="#380000" stop-opacity="0"/>
      <stop offset="1" stop-color="#380000" stop-opacity=".75"/>
    </linearGradient>
    <linearGradient id="Sfumatura_senza_nome_325" data-name="Sfumatura senza nome 325" x1="100" y1="340" x2="100" y2="60" gradientUnits="userSpaceOnUse">
      <stop offset="0" stop-color="#380000" stop-opacity=".75"/>
      <stop offset=".1" stop-color="#380000" stop-opacity="0"/>
      <stop offset=".9" stop-color="#380000" stop-opacity="0"/>
      <stop offset="1" stop-color="#380000" stop-opacity=".75"/>
    </linearGradient>
    <linearGradient id="Sfumatura_senza_nome_340-2" data-name="Sfumatura senza nome 340" x1="160" y1="120" x2="160" y2="60" gradientTransform="matrix(1,0,0,1,0,0)" xlink:href="#Sfumatura_senza_nome_340"/>
    <radialGradient id="Sfumatura_senza_nome_336-2" data-name="Sfumatura senza nome 336" cx="275.08" cy="291" fx="275.08" fy="291" r="91.14" gradientTransform="matrix(1,0,0,1,0,0)" xlink:href="#Sfumatura_senza_nome_336"/>
  </defs>
  <g id="S">
    <g id="shape">
      <polygon id="lower_cap" class="cls-8" points="100 400 200 340 0 340 100 400"/>
      <rect id="lowe_shape" class="cls-3" x="0" y="280" width="80" height="60" transform="translate(80 620) rotate(180)"/>
      <polygon id="central_shape" class="cls-5" points="200 258.07 200 340 120 340 120 258.07 0 139.23 0 60 80 60 80 139.23 200 258.07"/>
      <rect id="upper_shape" class="cls-1" x="120" y="60" width="80" height="60"/>
      <polygon id="upper_cap" class="cls-7" points="100 0 0 60 200 60 100 0"/>
    </g>
    <g id="shadow">
      <rect id="lowe_shadow" class="cls-6" x="0" y="280" width="80" height="60" transform="translate(80 620) rotate(180)"/>
      <polygon id="central_shadow" class="cls-4" points="200 258.07 200 340 120 340 120 258.07 0 139.23 0 60 80 60 80 139.23 200 258.07"/>
      <rect id="upper_shadow" class="cls-9" x="120" y="60" width="80" height="60"/>
    </g>
  </g>
  <g id="Flask">
    <path class="cls-2" d="M295.84,319.26s-10.37,13.24-23.61,0c-12.85-12.46-22.19,0-22.19,0l-30.95,61c-.9,3.32,1.08,6.74,4.4,7.63h102.79c3.32-.89,5.3-4.3,4.41-7.63l-34.84-61ZM343.24,377.13l-49.71-83.67v-.16l-.09-49.03h3.43c5.15,0,9.33-4.18,9.33-9.34s-4.19-9.33-9.33-9.33h-49.81c-5.15,0-9.33,4.18-9.33,9.33s4.18,9.34,9.33,9.34h3l-.1,49.04-43.04,83.81c-2.67,9.96,3.25,20.2,13.2,22.87h109.92c9.97-2.67,15.88-12.9,13.2-22.87h0ZM328.37,393.76l-106.59-.12c-6.64-1.78-10.57-8.61-8.8-15.24l43.28-84.84.13-55.5h-9.33c-1.71,0-3.11-1.4-3.11-3.12s1.4-3.11,3.11-3.11h49.81c1.71,0,3.1,1.4,3.1,3.11s-1.39,3.12-3.1,3.12h-9.33l.16,55.3,49.47,85.15c1.78,6.65-2.16,13.48-8.79,15.25h0ZM278.07,216.27c0,3.44,2.79,6.23,6.23,6.23s6.23-2.79,6.23-6.23-2.79-6.23-6.23-6.23-6.23,2.79-6.23,6.23ZM284.3,200.69c5.16,0,9.35-4.18,9.35-9.35s-4.19-9.35-9.35-9.35-9.35,4.18-9.35,9.35,4.19,9.35,9.35,9.35ZM259.38,216.27c3.45,0,6.23-2.79,6.23-6.23s-2.79-6.23-6.23-6.23-6.23,2.79-6.23,6.23,2.79,6.23,6.23,6.23Z"/>
  </g>
</svg>